<mxfile host="app.diagrams.net" modified="2022-09-15T09:34:40.912Z" agent="5.0 (Macintosh; Intel Mac OS X 10_15_7) AppleWebKit/537.36 (KHTML, like Gecko) Chrome/105.0.0.0 Safari/537.36" etag="FHpYCosKdB8WNu0lDJzE" version="20.3.0" type="github">
  <diagram id="RuXfAL2zDVdgTPW1aZbm" name="第 1 页">
    <mxGraphModel dx="1234" dy="769" grid="1" gridSize="10" guides="1" tooltips="1" connect="1" arrows="1" fold="1" page="1" pageScale="1" pageWidth="3300" pageHeight="4681" math="0" shadow="0">
      <root>
        <mxCell id="0" />
        <mxCell id="1" parent="0" />
        <mxCell id="YSNotdh7t0quSiGGyxVz-26" style="rounded=0;orthogonalLoop=1;jettySize=auto;html=1;exitX=0.5;exitY=1;exitDx=0;exitDy=0;entryX=1;entryY=0;entryDx=0;entryDy=0;" edge="1" parent="1" source="YSNotdh7t0quSiGGyxVz-9" target="YSNotdh7t0quSiGGyxVz-15">
          <mxGeometry relative="1" as="geometry" />
        </mxCell>
        <mxCell id="YSNotdh7t0quSiGGyxVz-27" style="edgeStyle=none;rounded=0;orthogonalLoop=1;jettySize=auto;html=1;exitX=0.5;exitY=1;exitDx=0;exitDy=0;entryX=0;entryY=0;entryDx=0;entryDy=0;" edge="1" parent="1" source="YSNotdh7t0quSiGGyxVz-9" target="YSNotdh7t0quSiGGyxVz-14">
          <mxGeometry relative="1" as="geometry" />
        </mxCell>
        <mxCell id="YSNotdh7t0quSiGGyxVz-28" style="edgeStyle=orthogonalEdgeStyle;curved=1;rounded=0;orthogonalLoop=1;jettySize=auto;html=1;exitX=0.5;exitY=1;exitDx=0;exitDy=0;" edge="1" parent="1" source="YSNotdh7t0quSiGGyxVz-9" target="YSNotdh7t0quSiGGyxVz-16">
          <mxGeometry relative="1" as="geometry" />
        </mxCell>
        <mxCell id="YSNotdh7t0quSiGGyxVz-9" value="Request" style="ellipse;whiteSpace=wrap;html=1;aspect=fixed;" vertex="1" parent="1">
          <mxGeometry x="580" y="210" width="60" height="60" as="geometry" />
        </mxCell>
        <mxCell id="YSNotdh7t0quSiGGyxVz-30" style="edgeStyle=orthogonalEdgeStyle;curved=1;rounded=0;orthogonalLoop=1;jettySize=auto;html=1;exitX=0.5;exitY=1;exitDx=0;exitDy=0;" edge="1" parent="1" source="YSNotdh7t0quSiGGyxVz-13" target="YSNotdh7t0quSiGGyxVz-24">
          <mxGeometry relative="1" as="geometry" />
        </mxCell>
        <mxCell id="YSNotdh7t0quSiGGyxVz-39" style="edgeStyle=none;rounded=0;orthogonalLoop=1;jettySize=auto;html=1;exitX=1;exitY=1;exitDx=0;exitDy=0;entryX=0;entryY=0;entryDx=0;entryDy=0;" edge="1" parent="1" source="YSNotdh7t0quSiGGyxVz-13" target="YSNotdh7t0quSiGGyxVz-21">
          <mxGeometry relative="1" as="geometry" />
        </mxCell>
        <mxCell id="YSNotdh7t0quSiGGyxVz-13" value="UserModel" style="ellipse;whiteSpace=wrap;html=1;aspect=fixed;" vertex="1" parent="1">
          <mxGeometry x="480" y="380" width="60" height="60" as="geometry" />
        </mxCell>
        <mxCell id="YSNotdh7t0quSiGGyxVz-33" style="edgeStyle=orthogonalEdgeStyle;curved=1;rounded=0;orthogonalLoop=1;jettySize=auto;html=1;exitX=0.5;exitY=1;exitDx=0;exitDy=0;entryX=0.5;entryY=0;entryDx=0;entryDy=0;" edge="1" parent="1" source="YSNotdh7t0quSiGGyxVz-14" target="YSNotdh7t0quSiGGyxVz-19">
          <mxGeometry relative="1" as="geometry" />
        </mxCell>
        <mxCell id="YSNotdh7t0quSiGGyxVz-14" value="I2U2" style="ellipse;whiteSpace=wrap;html=1;aspect=fixed;fillColor=#C9FFE4;" vertex="1" parent="1">
          <mxGeometry x="670" y="300" width="60" height="60" as="geometry" />
        </mxCell>
        <mxCell id="YSNotdh7t0quSiGGyxVz-29" style="edgeStyle=orthogonalEdgeStyle;curved=1;rounded=0;orthogonalLoop=1;jettySize=auto;html=1;exitX=0.5;exitY=1;exitDx=0;exitDy=0;entryX=0.5;entryY=0;entryDx=0;entryDy=0;" edge="1" parent="1" source="YSNotdh7t0quSiGGyxVz-15" target="YSNotdh7t0quSiGGyxVz-13">
          <mxGeometry relative="1" as="geometry" />
        </mxCell>
        <mxCell id="YSNotdh7t0quSiGGyxVz-44" style="edgeStyle=none;rounded=0;orthogonalLoop=1;jettySize=auto;html=1;exitX=1;exitY=1;exitDx=0;exitDy=0;entryX=0;entryY=0;entryDx=0;entryDy=0;" edge="1" parent="1" source="YSNotdh7t0quSiGGyxVz-15" target="YSNotdh7t0quSiGGyxVz-23">
          <mxGeometry relative="1" as="geometry" />
        </mxCell>
        <mxCell id="YSNotdh7t0quSiGGyxVz-15" value="User" style="ellipse;whiteSpace=wrap;html=1;aspect=fixed;" vertex="1" parent="1">
          <mxGeometry x="480" y="300" width="60" height="60" as="geometry" />
        </mxCell>
        <mxCell id="YSNotdh7t0quSiGGyxVz-31" style="edgeStyle=orthogonalEdgeStyle;curved=1;rounded=0;orthogonalLoop=1;jettySize=auto;html=1;exitX=0.5;exitY=1;exitDx=0;exitDy=0;" edge="1" parent="1" source="YSNotdh7t0quSiGGyxVz-16" target="YSNotdh7t0quSiGGyxVz-17">
          <mxGeometry relative="1" as="geometry" />
        </mxCell>
        <mxCell id="YSNotdh7t0quSiGGyxVz-16" value="I2U1" style="ellipse;whiteSpace=wrap;html=1;aspect=fixed;fillColor=#C9FFE4;" vertex="1" parent="1">
          <mxGeometry x="580" y="300" width="60" height="60" as="geometry" />
        </mxCell>
        <mxCell id="YSNotdh7t0quSiGGyxVz-32" style="edgeStyle=orthogonalEdgeStyle;curved=1;rounded=0;orthogonalLoop=1;jettySize=auto;html=1;exitX=0.5;exitY=1;exitDx=0;exitDy=0;entryX=0.5;entryY=0;entryDx=0;entryDy=0;" edge="1" parent="1" source="YSNotdh7t0quSiGGyxVz-17" target="YSNotdh7t0quSiGGyxVz-22">
          <mxGeometry relative="1" as="geometry" />
        </mxCell>
        <mxCell id="YSNotdh7t0quSiGGyxVz-17" value="Detail" style="ellipse;whiteSpace=wrap;html=1;aspect=fixed;" vertex="1" parent="1">
          <mxGeometry x="580" y="380" width="60" height="60" as="geometry" />
        </mxCell>
        <mxCell id="YSNotdh7t0quSiGGyxVz-37" style="edgeStyle=none;rounded=0;orthogonalLoop=1;jettySize=auto;html=1;exitX=0.5;exitY=1;exitDx=0;exitDy=0;entryX=1;entryY=0;entryDx=0;entryDy=0;" edge="1" parent="1" source="YSNotdh7t0quSiGGyxVz-19" target="YSNotdh7t0quSiGGyxVz-21">
          <mxGeometry relative="1" as="geometry" />
        </mxCell>
        <mxCell id="YSNotdh7t0quSiGGyxVz-19" value="Freq" style="ellipse;whiteSpace=wrap;html=1;aspect=fixed;" vertex="1" parent="1">
          <mxGeometry x="670" y="380" width="60" height="60" as="geometry" />
        </mxCell>
        <mxCell id="YSNotdh7t0quSiGGyxVz-38" style="edgeStyle=none;rounded=0;orthogonalLoop=1;jettySize=auto;html=1;exitX=0.5;exitY=1;exitDx=0;exitDy=0;entryX=0.5;entryY=0;entryDx=0;entryDy=0;" edge="1" parent="1" source="YSNotdh7t0quSiGGyxVz-21" target="YSNotdh7t0quSiGGyxVz-23">
          <mxGeometry relative="1" as="geometry" />
        </mxCell>
        <mxCell id="YSNotdh7t0quSiGGyxVz-41" style="edgeStyle=none;rounded=0;orthogonalLoop=1;jettySize=auto;html=1;exitX=1;exitY=0.5;exitDx=0;exitDy=0;entryX=0;entryY=0.5;entryDx=0;entryDy=0;" edge="1" parent="1" source="YSNotdh7t0quSiGGyxVz-21" target="YSNotdh7t0quSiGGyxVz-40">
          <mxGeometry relative="1" as="geometry" />
        </mxCell>
        <mxCell id="YSNotdh7t0quSiGGyxVz-21" value="Predict" style="ellipse;whiteSpace=wrap;html=1;aspect=fixed;" vertex="1" parent="1">
          <mxGeometry x="580" y="550" width="60" height="60" as="geometry" />
        </mxCell>
        <mxCell id="YSNotdh7t0quSiGGyxVz-36" style="edgeStyle=none;rounded=0;orthogonalLoop=1;jettySize=auto;html=1;exitX=0.5;exitY=1;exitDx=0;exitDy=0;entryX=0.5;entryY=0;entryDx=0;entryDy=0;" edge="1" parent="1" source="YSNotdh7t0quSiGGyxVz-22" target="YSNotdh7t0quSiGGyxVz-21">
          <mxGeometry relative="1" as="geometry" />
        </mxCell>
        <mxCell id="YSNotdh7t0quSiGGyxVz-22" value="Filter" style="ellipse;whiteSpace=wrap;html=1;aspect=fixed;" vertex="1" parent="1">
          <mxGeometry x="580" y="460" width="60" height="60" as="geometry" />
        </mxCell>
        <mxCell id="YSNotdh7t0quSiGGyxVz-45" style="edgeStyle=none;rounded=0;orthogonalLoop=1;jettySize=auto;html=1;exitX=1;exitY=0.5;exitDx=0;exitDy=0;" edge="1" parent="1" source="YSNotdh7t0quSiGGyxVz-23" target="YSNotdh7t0quSiGGyxVz-42">
          <mxGeometry relative="1" as="geometry" />
        </mxCell>
        <mxCell id="YSNotdh7t0quSiGGyxVz-23" value="Response" style="ellipse;whiteSpace=wrap;html=1;aspect=fixed;" vertex="1" parent="1">
          <mxGeometry x="580" y="636" width="60" height="60" as="geometry" />
        </mxCell>
        <mxCell id="YSNotdh7t0quSiGGyxVz-35" style="edgeStyle=none;rounded=0;orthogonalLoop=1;jettySize=auto;html=1;exitX=1;exitY=1;exitDx=0;exitDy=0;entryX=0;entryY=0;entryDx=0;entryDy=0;" edge="1" parent="1" source="YSNotdh7t0quSiGGyxVz-24" target="YSNotdh7t0quSiGGyxVz-21">
          <mxGeometry relative="1" as="geometry" />
        </mxCell>
        <mxCell id="YSNotdh7t0quSiGGyxVz-24" value="I2I" style="ellipse;whiteSpace=wrap;html=1;aspect=fixed;fillColor=#C9FFE4;" vertex="1" parent="1">
          <mxGeometry x="480" y="460" width="60" height="60" as="geometry" />
        </mxCell>
        <mxCell id="YSNotdh7t0quSiGGyxVz-40" value="Dump" style="ellipse;whiteSpace=wrap;html=1;aspect=fixed;" vertex="1" parent="1">
          <mxGeometry x="670" y="550" width="60" height="60" as="geometry" />
        </mxCell>
        <mxCell id="YSNotdh7t0quSiGGyxVz-42" value="LOG" style="ellipse;whiteSpace=wrap;html=1;aspect=fixed;" vertex="1" parent="1">
          <mxGeometry x="670" y="636" width="60" height="60" as="geometry" />
        </mxCell>
      </root>
    </mxGraphModel>
  </diagram>
</mxfile>
